<svg xmlns="http://www.w3.org/2000/svg" viewBox="0 0 509.84 157.74"><defs><style>.cls-1{fill:#6c5ce7;}</style></defs><g id="Layer_2" data-name="Layer 2"><g id="Layer_1-2" data-name="Layer 1"><path class="cls-1" d="M24.41,24.41v14.7H74.13a12.21,12.21,0,1,1,0,24.41H24.41V133h60.8a12.21,12.21,0,1,1,0,24.42H15.1a12.56,12.56,0,0,1-2.89.35A12.2,12.2,0,0,1,0,145.54V12.21A12.2,12.2,0,0,1,12.21,0h73a12.21,12.21,0,1,1,0,24.41ZM219.11,1h-3a13.87,13.87,0,0,0-4.5,0H129.26A11.35,11.35,0,0,0,117.91,12.3V14a11.35,11.35,0,0,0,11.35,11.35H190.4L120.69,132.41a13.62,13.62,0,0,0-1.43,2.92,12.2,12.2,0,0,0,9.48,19.88h88.14a12.21,12.21,0,1,0,0-24.41H157.79l69.9-107.33a13.61,13.61,0,0,0,2.07-5.56,11.15,11.15,0,0,0,.7-3.9V12.3A11.35,11.35,0,0,0,219.11,1Zm115.1,23.46a12.21,12.21,0,1,0,0-24.41h-73A12.21,12.21,0,0,0,249,12.21V145.54a12.21,12.21,0,0,0,12.21,12.2,12.56,12.56,0,0,0,2.89-.35h70.11a12.21,12.21,0,1,0,0-24.42h-60.8v-17.3h49.72a12.21,12.21,0,1,0,0-24.41H273.41V24.41ZM509.83,78.7s0-.09,0-.14h0A78.88,78.88,0,0,0,431,0H430V0a78.86,78.86,0,0,0,.89,157.72h0c43.53,0,78.68-35.62,78.9-78.87h0C509.84,78.82,509.83,78.76,509.83,78.7Zm-68.25,44.81A56.41,56.41,0,1,1,498,66.88C497.87,98,472.61,123.5,441.58,123.51Z"/></g></g></svg>