<svg width="37" height="37" viewBox="0 0 37 37" fill="none" xmlns="http://www.w3.org/2000/svg">
<g clip-path="url(#clip0_84_6638)">
<path d="M32.6172 36.2199H4.54968C2.35618 36.2199 0.57666 34.4403 0.57666 32.2468V4.17931C0.57666 1.98581 2.35618 0.206299 4.54968 0.206299H32.6203C34.8138 0.206299 36.5933 1.98581 36.5933 4.17931V32.2499C36.5902 34.4434 34.8138 36.2199 32.6172 36.2199Z" fill="#5856D6"/>
<path d="M13.4256 28.317C12.5883 27.9308 12.2608 27.2604 12.2639 26.3645C12.2732 20.8962 12.2639 15.4279 12.2701 9.95649C12.2701 8.73307 12.9065 8.1121 14.1269 8.10901C17.0958 8.10592 20.0679 8.10592 23.0368 8.10901C24.2046 8.10901 24.875 8.68055 24.8874 9.67226C24.8997 10.6516 24.1583 11.322 23.0214 11.3251C20.8402 11.3344 18.6622 11.3251 16.481 11.3344C16.1999 11.3344 15.8044 11.2015 15.6747 11.5445C15.5109 11.9801 15.5078 12.4744 15.6839 12.9162C15.7859 13.1695 16.0979 13.0861 16.3235 13.0861C18.0752 13.0923 19.8269 13.0861 21.5817 13.0892C22.7958 13.0923 23.4477 13.6607 23.4477 14.7019C23.4477 15.6967 22.7371 16.3146 21.557 16.3176C19.8269 16.3238 18.0937 16.3393 16.3636 16.3084C15.7797 16.2991 15.5758 16.4906 15.582 17.0776C15.6067 19.5028 15.6067 21.9281 15.582 24.3564C15.5758 24.9619 15.8137 25.1133 16.3791 25.1071C18.5386 25.0824 20.695 25.0978 22.8545 25.0978C24.0316 25.0978 24.6248 25.4346 24.8318 26.2162C25.0635 27.0936 24.7175 27.7238 23.6856 28.3139C20.2687 28.317 16.8487 28.317 13.4256 28.317Z" fill="white"/>
</g>
<defs>
<clipPath id="clip0_84_6638">
<rect width="36.0136" height="36.0136" fill="white" transform="translate(0.57666 0.206299)"/>
</clipPath>
</defs>
</svg>
